<svg xmlns="http://www.w3.org/2000/svg" xmlns:xl="http://www.w3.org/1999/xlink" xmlns:dc="http://purl.org/dc/elements/1.1/" version="1.1" viewBox="0 0 100 125" x="0px" y="0px"><metadata> Produced by OmniGraffle 6.0.5 </metadata><g stroke="none" stroke-opacity="1" stroke-dasharray="none" fill="none" fill-opacity="1"><title>Canvas 1</title><g><title>Layer 1</title><path d="M 50.436256 55.82307 L 51.327614 56.71443 C 51.510462 56.897277 51.758457 57 52.017043 57 L 87.28432 57 C 87.54291 57 87.790903 56.897277 87.97375 56.71443 L 88.86511 55.82307 C 89.047957 55.640223 89.15068 55.392228 89.15068 55.133642 L 89.15068 54.80625 C 89.15068 54.402392 88.82329 54.075 88.41943 54.075 L 50.881935 54.075 C 50.478077 54.075 50.150685 54.402392 50.150685 54.80625 L 50.150685 55.133642 C 50.150685 55.392228 50.253408 55.640223 50.436256 55.82307 L 50.436256 55.82307 L 50.436256 55.82307 Z M 59.90505 48.30799 C 58.57401 47.44256 56.726433 47.561767 55.537687 48.66561 C 55.209962 48.969923 54.96283 49.320735 54.79629 49.695174 C 54.000918 49.748433 53.220642 50.079043 52.612687 50.687 C 51.822026 51.477658 51.500457 52.55977 51.64798 53.5875 L 87.806493 53.5875 C 88.37732 52.73492 88.286204 51.57059 87.533146 50.817537 C 86.89187 50.176258 85.95235 50.014996 85.16108 50.333752 C 85.14284 49.412995 84.71903 48.49693 83.889653 47.794334 C 82.49385 46.61189 80.38434 46.402565 78.735846 47.166358 C 78.52056 46.142775 77.911816 45.160563 76.909617 44.370956 C 74.35686 42.35968 70.21802 42.35968 67.66526 44.370956 C 66.86933 44.998048 66.321565 45.746621 66.02196 46.540923 C 65.931997 46.432208 65.833404 46.32767 65.726184 46.22811 C 64.39352 44.99063 62.23285 44.99063 60.900186 46.22811 C 60.277897 46.805946 59.946185 47.551428 59.90505 48.30799 Z M 76.534824 46.21586 C 77.10597 46.787 77.10597 47.713002 76.534824 48.284144 C 75.963683 48.855288 75.03768 48.855288 74.46654 48.284144 C 73.895395 47.713002 73.895395 46.787 74.46654 46.21586 C 75.03768 45.644715 75.963683 45.644715 76.534824 46.21586 M 66.15454 49.283644 C 66.916065 50.045166 66.916065 51.279836 66.15454 52.041357 C 65.393018 52.802883 64.15835 52.802883 63.396827 52.041357 C 62.6353 51.279836 62.6353 50.045166 63.396827 49.283644 C 64.15835 48.52212 65.393018 48.52212 66.15454 49.283644 M 83.217037 49.283644 C 83.978563 50.045166 83.978563 51.279836 83.217037 52.041357 C 82.455516 52.802883 81.220846 52.802883 80.459324 52.041357 C 79.6978 51.279836 79.6978 50.045166 80.459324 49.283644 C 81.220846 48.52212 82.455516 48.52212 83.217037 49.283644 M 59.472326 44.75336 C 58.901185 44.182215 57.975183 44.182215 57.40404 44.75336 C 56.832897 45.3245 56.832897 46.250503 57.40404 46.821644 C 57.975183 47.392788 58.901185 47.392788 59.472326 46.821644 C 60.04347 46.250503 60.04347 45.3245 59.472326 44.75336 M 82.09925 42.11393 C 81.14735 41.162024 79.604012 41.162024 78.65211 42.11393 C 77.700203 43.065833 77.700203 44.60917 78.65211 45.561072 C 79.604012 46.51298 81.14735 46.51298 82.09925 45.561072 C 83.05116 44.60917 83.05116 43.065833 82.09925 42.11393 M 32.492537 45.306993 C 32.492537 45.148655 32.429638 44.996802 32.317676 44.88484 L 26.69725 39.264414 C 26.585288 39.152452 26.522388 39.0006 26.522388 38.84226 L 26.522388 37.597015 C 26.522388 37.267293 26.255095 37 25.925373 37 L 18.164179 37 C 17.834457 37 17.567164 37.267293 17.567164 37.597015 L 17.567164 38.84226 C 17.567164 39.000599 17.630064 39.152452 17.742026 39.264414 L 17.742026 39.264414 L 17.742026 39.264414 L 23.362452 44.88484 C 23.474414 44.996802 23.537313 45.148655 23.537313 45.306993 L 23.537313 56.402985 C 23.537313 56.732707 23.804606 57 24.134328 57 L 31.895522 57 C 32.225245 57 32.492537 56.732707 32.492537 56.402985 L 32.492537 51.626866 L 32.492537 51.328358 L 32.492537 50.731343 L 31.895522 50.731343 L 31.597015 50.731343 L 25.925373 50.731343 C 25.595651 50.731343 25.328358 50.46405 25.328358 50.134328 L 25.328358 46.850746 C 25.328358 46.521024 25.595651 46.25373 25.925373 46.25373 L 31.597015 46.25373 L 31.895522 46.25373 L 32.492537 46.25373 L 32.492537 45.656716 L 32.492537 45.35821 L 32.492537 45.306993 L 32.492537 45.306993 Z M 11.1748616 45.183347 C 11.0628996 45.29531 11 45.447162 11 45.6055 L 11 56.402985 C 11 56.732707 11.267293 57 11.597015 57 L 22.343284 57 C 22.673006 57 22.940299 56.732707 22.940299 56.402985 L 22.940299 45.6055 C 22.940299 45.447162 22.877399 45.29531 22.765437 45.183347 L 17.392303 39.810213 C 17.159154 39.577064 16.781145 39.577064 16.547996 39.810213 L 11.1748616 45.183347 Z M 13.38806 50.731343 L 20.552239 50.731343 C 20.881961 50.731343 21.149254 50.998636 21.149254 51.328358 L 21.149254 54.61194 C 21.149254 54.941663 20.881961 55.208955 20.552239 55.208955 L 13.38806 55.208955 C 13.0583375 55.208955 12.791045 54.941663 12.791045 54.61194 L 12.791045 51.328358 C 12.791045 50.998636 13.0583375 50.731343 13.38806 50.731343 Z M 42.424658 42.10274 C 41.95662 42.10274 41.020548 40.561644 38.212329 40.561644 C 35.40411 40.561644 34 43.130137 34 45.184932 C 34 48.60959 35.872146 54.431507 36.80822 55.458904 C 37.744292 56.4863 38.212329 57 39.616438 57 C 41.020548 57 42.424658 55.972603 42.424658 55.972603 C 42.424658 55.972603 43.828767 57 45.232877 57 C 46.636986 57 47.105023 56.4863 48.041096 55.458904 C 48.97717 54.431507 50.849315 48.60959 50.849315 45.184932 C 50.849315 43.130137 49.445205 40.561644 46.636986 40.561644 C 43.828767 40.561644 42.892694 42.10274 42.424658 42.10274 Z M 38.685996 42.027014 L 38.685996 42.027014 C 38.685996 42.027014 37.127246 45.03051 36.365843 45.374456 C 35.60444 45.7184 35.468966 43.944822 36.290884 42.848932 C 37.112802 41.753042 38.685996 42.027014 38.685996 42.027014 Z M 42.082192 41.49275 C 42.082192 41.49275 41.381642 38.01297 40.692577 37.323904 C 40.003511 36.634838 38.608154 37.092301 38.839757 38.250314 C 39.07136 39.408326 42.082192 41.492749 42.082192 41.49275 Z M 42.575342 41.657534 C 42.701055 41.657534 42.807586 41.564986 42.82516 41.440508 L 43.375457 37.542565 C 43.412208 37.282247 43.23097 37.041425 42.970653 37.004674 C 42.948608 37.001562 42.926373 37 42.90411 37 C 42.601488 37 42.356164 37.245323 42.356164 37.547945 L 42.356164 41.438356 C 42.356164 41.559405 42.454294 41.657534 42.575342 41.657534 Z M 8.828427 62 L 91.171573 62 C 91.702006 62 92.210714 61.789286 92.585786 61.414214 L 94.646447 59.353553 C 94.872823 59.127177 95 58.820145 95 58.5 C 95 58.223858 94.77614 58 94.5 58 L 5.5 58 C 5.2238576 58 5 58.223858 5 58.5 C 5 58.820145 5.127177 59.127177 5.3535534 59.353553 L 5.3535534 59.353553 L 7.4142136 61.414214 C 7.789286 61.789286 8.297994 62 8.8284267 62 Z" fill="black"/></g></g><text x="0" y="115" fill="#000000" font-size="5px" font-weight="bold" font-family="'Helvetica Neue', Helvetica, Arial-Unicode, Arial, Sans-serif">Created by PJ Souders</text><text x="0" y="120" fill="#000000" font-size="5px" font-weight="bold" font-family="'Helvetica Neue', Helvetica, Arial-Unicode, Arial, Sans-serif">from the Noun Project</text></svg>